<?xml version="1.0" standalone="no"?>
<!DOCTYPE svg PUBLIC "-//W3C//DTD SVG 20010904//EN"
 "http://www.w3.org/TR/2001/REC-SVG-20010904/DTD/svg10.dtd">
<svg version="1.0" xmlns="http://www.w3.org/2000/svg"
 width="500.000000pt" height="500.000000pt" viewBox="0 0 500.000000 500.000000"
 preserveAspectRatio="xMidYMid meet">
<metadata>
Created by potrace 1.11, written by Peter Selinger 2001-2013
</metadata>
<g transform="translate(0.000000,500.000000) scale(0.100000,-0.100000)"
fill="#000000" stroke="none">
<path d="M1135 4923 c-308 -67 -546 -264 -619 -512 -21 -73 -21 -239 0 -312
34 -116 108 -238 180 -297 l36 -30 -268 -4 c-346 -4 -352 -7 -373 -161 -14
-101 -14 -880 -1 -984 6 -43 16 -88 22 -100 11 -22 88 -65 111 -62 7 1 30 1
53 0 l41 -1 6 -1097 c7 -1154 9 -1218 51 -1249 10 -7 63 -15 119 -19 56 -3
1002 -5 2102 -3 1548 2 2005 6 2021 15 13 7 26 30 33 57 18 74 31 674 31 1509
l0 787 43 1 c23 1 47 2 52 3 49 8 78 22 100 48 20 24 25 40 25 88 0 32 4 62
10 65 14 8 14 892 0 900 -5 3 -10 32 -10 63 0 65 -15 93 -63 119 -27 15 -70
18 -301 21 l-269 4 40 36 c124 115 193 274 193 449 0 211 -106 395 -302 525
-177 117 -315 153 -562 146 -147 -5 -169 -8 -256 -36 -225 -74 -372 -208 -590
-537 -84 -127 -203 -329 -251 -427 -18 -38 -36 -68 -39 -68 -3 0 -27 42 -54
93 -226 426 -463 741 -641 852 -148 93 -282 126 -503 124 -81 -1 -156 -3 -167
-6z m344 -267 c196 -53 324 -197 611 -691 29 -49 62 -105 73 -124 l20 -33
-389 5 c-484 6 -630 24 -756 89 -77 41 -128 86 -174 155 l-39 58 -3 122 -4
122 36 65 c111 198 378 298 625 232z m2306 9 c159 -28 314 -135 370 -257 21
-46 25 -67 25 -159 0 -93 -3 -111 -25 -155 -29 -56 -61 -93 -125 -145 -84 -68
-166 -96 -353 -119 -87 -11 -847 -33 -855 -25 -9 8 156 287 285 481 149 226
254 323 392 363 113 33 171 37 286 16z m815 -1560 l0 -405 -2100 0 -2100 0 0
405 0 405 2100 0 2100 0 0 -405z m-2786 -697 c-25 -243 -100 -381 -248 -453
-84 -40 -161 -55 -361 -69 -111 -8 -213 -21 -245 -31 -93 -29 -188 -85 -266
-158 l-74 -69 0 229 c0 125 3 312 7 416 l6 187 593 0 593 0 -5 -52z m2556
-371 l0 -423 -77 76 c-142 138 -242 176 -509 195 -204 15 -281 30 -371 72
-139 66 -224 218 -240 431 l-6 72 602 0 601 0 0 -423z m-1720 -167 c189 -20
323 -80 395 -178 69 -94 101 -219 111 -439 7 -162 24 -242 71 -340 112 -232
345 -376 603 -375 190 0 347 67 482 206 l58 59 0 -226 0 -227 -1872 2 -1872 3
-2 218 -2 217 72 -67 c83 -80 200 -145 302 -169 89 -21 231 -21 314 0 188 47
357 181 438 346 58 118 71 179 82 375 13 242 51 365 142 455 119 120 369 171
678 140z"/>
</g>
</svg>
